<?xml version="1.0" encoding="utf-8"?><svg xmlns="http://www.w3.org/2000/svg" xmlns:xlink="http://www.w3.org/1999/xlink"><symbol viewBox="0 0 100 100" id="github" xmlns="http://www.w3.org/2000/svg"><circle cx="50" cy="50" r="45"/><path clip-rule="evenodd" d="M51.896 57.746h-1.378v.328c-.002 2.162.005 4.326-.012 6.49-.006.723-.197 1.414-.512 2.062-.426.887-1.178 1.336-2.117 1.508-.157.027-.321.061-.479.051-.146-.01-.29-.074-.46-.121.16-.268.282-.484.414-.695a4.156 4.156 0 0 0 .628-2.189c.033-2.322.025-4.646.036-6.971 0-.043-.013-.088-.019-.131-.634.098-1.098.672-1.132 1.4-.014.305-.004.607-.004.912 0 1.342-.052 2.686.013 4.023.094 1.896-1.26 2.639-2.565 2.805-.308.039-.623.021-.936.01a.757.757 0 0 1-.327-.098c-.248-.139-.274-.406-.066-.6.092-.086.19-.168.296-.229 1.102-.631 1.485-1.598 1.382-2.824-.082-.957-.124-1.918-.185-2.881-.26.059-.558.141-.861.191-1.321.223-2.541-.084-3.734-.648-.897-.424-1.47-1.141-1.973-1.941-.358-.564-.648-1.188-1.074-1.693-.585-.691-1.267-1.303-1.921-1.936-.266-.262-.277-.395.03-.615.537-.387 1.098-.236 1.629-.008.674.293 1.155.828 1.611 1.385.604.732 1.218 1.449 2.02 1.984 1.396.934 3.078.93 4.443-.041a.588.588 0 0 0 .176-.252c.34-.918.952-1.582 1.855-1.969l1.083-.461c-.545-.068-1.015-.123-1.48-.188-2.014-.283-3.952-.787-5.718-1.85-1.935-1.166-3.08-2.885-3.574-5.057-.504-2.227-.508-4.449.176-6.643.334-1.072.943-1.998 1.673-2.844.118-.135.154-.246.104-.426-.502-1.783-.302-3.537.228-5.277.036-.119.078-.238.118-.357.008-.023.024-.045.07-.139.661.117 1.349.207 2.022.369 1.399.334 2.663.969 3.812 1.83a.472.472 0 0 0 .441.088 21.486 21.486 0 0 1 5.226-.656 23.51 23.51 0 0 1 5.132.547c.21.047.364.01.546-.104 1.176-.729 2.351-1.477 3.734-1.754.619-.127 1.253-.18 1.879-.27.158-.021.238.023.286.189.52 1.725.728 3.471.392 5.262-.02.102.018.25.088.326 1.384 1.529 2.073 3.352 2.297 5.375.172 1.551.061 3.086-.281 4.605-.506 2.256-1.781 3.949-3.732 5.178-1.43.898-2.991 1.375-4.645 1.604-.537.072-1.079.125-1.659.191.074.049.126.088.181.121l.829.492c1.14.672 1.724 1.699 1.899 2.982.034.256.052.516.056.773.036 1.975.066 3.949.106 5.922a.64.64 0 0 0 .102.322c.326.516.766.912 1.289 1.223.177.104.347.207.294.453-.05.232-.231.314-.434.336-1.249.135-2.343-.189-3.181-1.162-.315-.367-.374-.84-.374-1.314-.002-1.625 0-3.254-.002-4.881 0-.178-.006-.357-.031-.533-.101-.652-.526-1.098-1.226-1.264v.291c0 2.145-.006 4.291.002 6.438.002.4.04.801.086 1.201.046.404.2.768.432 1.109.196.287.326.621.508.98-.18.035-.284.084-.38.068-.701-.104-1.388-.27-1.961-.721-.651-.512-.901-1.25-1.067-2.016a5.96 5.96 0 0 1-.118-1.223c-.012-2.039-.006-4.076-.006-6.115v-.327z" fill="#FFF" fill-rule="evenodd"/></symbol><symbol viewBox="0 0 541.506 121.785" id="logo" xmlns="http://www.w3.org/2000/svg"><path fill="#06F" d="M408.338 49.184L386.28 16.731h-21.119a45.127 45.127 0 0 1 8.999 7.355c4.04 4.303 7.229 9.351 9.579 15.141 2.339 5.791 3.516 11.943 3.516 18.454 0 6.521-1.177 12.673-3.516 18.467-2.35 5.791-5.539 10.834-9.579 15.132a44.973 44.973 0 0 1-10.2 8.089l.011 1.914h26.998v-30.42l17.369 25.352 17.24-25.352v30.42h26.994V16.731h-22.306l-21.928 32.453z"/><path fill="#333" d="M59.475 38.921h12.851l8.414-22.19H15.695v22.19h15.586v62.358h17.391l10.803-28.477zm72.124-22.19h-29.936l32.075 84.551h28.115V74.061h-30.254zm112.345 0H210.86l-15.972 19.526V16.731h-27.384v84.551h27.384V75.167l17.999 26.115h32.578l-31.309-45.888zm46.248 38.504V38.921h11.661c2.327-5.665 5.478-10.603 9.452-14.834a44.54 44.54 0 0 1 8.286-6.912v-.443h-72.173v22.189h15.597v62.361h27.177V60.139a44.338 44.338 0 0 1-.061-2.458c.001-.816.016-1.639.061-2.446z"/><path fill="#06F" d="M485.028 79.096v-9.759h39.513V48.293h-39.513v-9.372h39.899v-22.19h-66.892v84.551h67.776V79.096z"/><path fill="#333" d="M91.285 53.83l-8.611 22.09h16.587z"/><path fill="#FFF" d="M290.208 64.878c0 .823.02 1.638.061 2.448v-4.902a48.483 48.483 0 0 0-.061 2.454z"/><path fill="#333" d="M342.613 39.514c-9.501 0-17.201 7.708-17.201 17.202 0 9.499 7.7 17.2 17.201 17.2 9.499 0 17.199-7.701 17.199-17.2 0-9.494-7.7-17.202-17.199-17.202z"/></symbol><symbol viewBox="0 0 100 100" id="skype" xmlns="http://www.w3.org/2000/svg"><circle cx="50" cy="49.999" fill="#3BAAE0" r="45"/><path d="M70.255 50.218c0-10.906-8.966-19.75-20.032-19.75-1.165 0-2.309.1-3.425.289a11.691 11.691 0 0 0-6.179-1.758c-6.419 0-11.618 5.127-11.618 11.457 0 2.113.581 4.09 1.595 5.795a19.617 19.617 0 0 0-.405 3.967c0 10.912 8.97 19.752 20.032 19.752 1.256 0 2.479-.115 3.668-.33a11.707 11.707 0 0 0 5.494 1.359c6.417 0 11.616-5.127 11.616-11.453a11.29 11.29 0 0 0-1.207-5.088c.302-1.367.461-2.785.461-4.24zm-9.757 9.439c-.926 1.297-2.293 2.318-4.072 3.043-1.755.723-3.86 1.09-6.257 1.09-2.879 0-5.29-.5-7.175-1.484-1.346-.717-2.453-1.686-3.297-2.889-.852-1.207-1.281-2.408-1.281-3.568 0-.721.282-1.348.836-1.863.548-.51 1.251-.766 2.091-.766.686 0 1.281.201 1.764.604.461.387.857.959 1.175 1.693.356.801.74 1.479 1.147 2.006.396.516.962.947 1.682 1.285.728.336 1.707.512 2.91.512 1.657 0 3.015-.35 4.034-1.037 1-.67 1.485-1.477 1.485-2.467 0-.775-.256-1.389-.773-1.871-.548-.502-1.268-.891-2.139-1.164-.912-.277-2.146-.58-3.675-.898-2.081-.438-3.848-.955-5.249-1.547-1.438-.604-2.598-1.438-3.442-2.48-.86-1.064-1.298-2.396-1.298-3.961 0-1.49.458-2.836 1.361-3.996.894-1.15 2.203-2.051 3.891-2.662 1.661-.605 3.636-.914 5.875-.914 1.789 0 3.362.205 4.676.609 1.319.404 2.433.951 3.307 1.623.881.682 1.537 1.404 1.949 2.16.413.762.627 1.52.627 2.252 0 .705-.277 1.348-.823 1.906-.548.564-1.241.85-2.057.85-.742 0-1.324-.18-1.724-.531-.376-.328-.766-.84-1.197-1.568-.5-.936-1.104-1.674-1.799-2.195-.674-.506-1.798-.76-3.345-.76-1.434 0-2.603.283-3.471.846-.833.539-1.241 1.158-1.241 1.895 0 .447.13.824.401 1.146.282.346.684.643 1.193.895a8.638 8.638 0 0 0 1.611.617c.556.152 1.489.379 2.771.672 1.623.34 3.112.729 4.428 1.143 1.337.42 2.486.936 3.431 1.541.957.617 1.717 1.404 2.257 2.35.541.953.815 2.121.815 3.482a7.4 7.4 0 0 1-1.402 4.401z" fill="#FFF"/></symbol><symbol viewBox="0 0 100 100" id="telegram" xmlns="http://www.w3.org/2000/svg"><circle cx="50" cy="50" fill="#139BD0" r="45"/><path clip-rule="evenodd" d="M51.474 60.754c-1.733 1.688-3.451 3.348-5.153 5.021-.595.586-1.264.91-2.118.865-.583-.031-.909-.287-1.088-.84-1.304-4.047-2.627-8.084-3.924-12.135-.126-.393-.312-.584-.71-.707a843.741 843.741 0 0 1-9.199-2.871c-.471-.15-.946-.346-1.353-.623-.629-.426-.721-1.121-.157-1.621a6.227 6.227 0 0 1 1.789-1.119c3.755-1.488 7.53-2.928 11.299-4.381 9.565-3.693 19.13-7.383 28.696-11.076 1.819-.703 3.217.287 3.028 2.254-.121 1.258-.447 2.496-.71 3.738a26979.26 26979.26 0 0 1-6.244 29.42c-.496 2.328-2.131 2.936-4.047 1.523-3.209-2.365-6.415-4.738-9.622-7.107-.153-.111-.312-.218-.487-.341zm-7.203 2.978l.108-.029c.02-.092.049-.182.057-.273.206-2.223.424-4.445.603-6.672.04-.496.21-.848.583-1.182 2.958-2.645 5.898-5.307 8.844-7.963 3.261-2.941 6.523-5.879 9.772-8.832.201-.182.285-.492.423-.744-.306-.033-.634-.156-.912-.084-.379.098-.738.318-1.076.531-7.197 4.533-14.388 9.074-21.59 13.598-.407.256-.483.473-.328.92.531 1.525 1.014 3.064 1.515 4.6l2.001 6.13z" fill="#FFF" fill-rule="evenodd"/></symbol><symbol viewBox="0 0 100 100" id="viber" xmlns="http://www.w3.org/2000/svg"><circle cx="50" cy="49.999" fill="#7C519B" r="45"/><path d="M49.758 31.413c.285-.262.487-.299 1.48-.268.521.018 1.279.078 1.695.127 2.098.262 3.795.768 5.653 1.674 1.829.896 3.001 1.742 4.55 3.283 1.449 1.455 2.255 2.557 3.109 4.268 1.189 2.387 1.866 5.225 1.982 8.348.042 1.066.012 1.305-.231 1.607-.464.592-1.483.494-1.829-.17-.112-.219-.143-.408-.178-1.262-.061-1.309-.152-2.154-.336-3.166-.72-3.963-2.621-7.129-5.658-9.4-2.532-1.898-5.147-2.826-8.573-3.025-1.16-.066-1.361-.109-1.623-.311-.487-.385-.512-1.285-.041-1.705zm7.268 7.842c-1.226-.73-3.037-1.271-4.688-1.406-.6-.049-.928-.17-1.153-.432a1.11 1.11 0 0 1-.092-1.377c.317-.492.804-.572 2.261-.354 3.702.543 6.569 2.26 8.446 5.049 1.058 1.57 1.715 3.416 1.941 5.395.077.725.077 2.045-.009 2.264-.077.207-.335.488-.554.604-.237.121-.745.109-1.025-.037-.468-.236-.609-.615-.609-1.637 0-1.578-.408-3.24-1.115-4.529a9.269 9.269 0 0 0-3.403-3.54zm2.061 8.117c-.359.328-1.025.34-1.428.031-.291-.221-.384-.453-.451-1.078-.078-.834-.224-1.42-.476-1.961-.536-1.15-1.481-1.748-3.079-1.943-.749-.09-.976-.176-1.219-.463-.446-.529-.274-1.387.342-1.705.231-.113.327-.127.841-.096.316.018.786.072 1.036.127 1.201.256 2.123.713 2.908 1.449 1.014.957 1.569 2.113 1.813 3.775.165 1.085.097 1.511-.287 1.864zm9.109 15.996c-.449 1.162-2.206 3.342-3.432 4.273-1.109.84-1.897 1.162-2.935 1.213-.852.041-1.206-.033-2.297-.482-8.562-3.525-15.399-8.785-20.827-16.014-2.834-3.775-4.993-7.689-6.471-11.752-.857-2.367-.899-3.396-.193-4.609.306-.51 1.603-1.777 2.551-2.482 1.573-1.17 2.299-1.602 2.876-1.725.398-.086 1.086-.018 1.525.141.212.072.544.244.731.365 1.16.768 4.385 4.889 5.439 6.947.604 1.176.806 2.045.616 2.691-.196.693-.52 1.059-1.963 2.223-.58.469-1.124.949-1.208 1.078-.22.316-.397.938-.397 1.375.006 1.018.666 2.861 1.531 4.281.672 1.102 1.871 2.514 3.062 3.598 1.396 1.279 2.627 2.15 4.019 2.838 1.785.889 2.878 1.113 3.676.742a2.71 2.71 0 0 0 .481-.268c.061-.055.53-.627 1.044-1.26.987-1.242 1.214-1.443 1.89-1.674.861-.293 1.738-.215 2.622.236.672.348 2.135 1.256 3.079 1.912 1.245.871 3.904 3.039 4.264 3.471.636.781.746 1.779.317 2.882z" fill="#FFF"/></symbol><symbol viewBox="0 0 100 100" id="whatsapp" xmlns="http://www.w3.org/2000/svg"><circle cx="50" cy="49.999" fill="#1EAFE5" r="45"/><path d="M49.999 29.378c-11.389 0-20.62 8.549-20.62 19.094 0 6.01 2.999 11.369 7.685 14.871v7.279l7.021-3.854c1.875.52 3.858.799 5.915.799 11.389 0 20.623-8.549 20.623-19.096-.001-10.544-9.235-19.093-20.624-19.093zm2.051 25.715l-5.251-5.602-10.249 5.602 11.272-11.967 5.38 5.602 10.119-5.602L52.05 55.093z" fill="#FFF"/></symbol></svg>